<?xml version="1.0" standalone="no"?><!DOCTYPE svg PUBLIC "-//W3C//DTD SVG 1.1//EN" "http://www.w3.org/Graphics/SVG/1.1/DTD/svg11.dtd"><svg t="1572851165825" class="icon" viewBox="0 0 1024 1024" version="1.1" xmlns="http://www.w3.org/2000/svg" p-id="14821" xmlns:xlink="http://www.w3.org/1999/xlink" width="18" height="18"><defs><style type="text/css"></style></defs><path d="M413.538462 955.076923v-59.076923c0-15.753846-13.784615-29.538462-29.538462-29.538462h-196.923077c-15.753846 0-29.538462-13.784615-29.538461-29.538461v-649.846154C157.538462 171.323077 171.323077 157.538462 187.076923 157.538462h196.923077c15.753846 0 29.538462-13.784615 29.538462-29.538462v-59.076923c0-15.753846-13.784615-29.538462-29.538462-29.538462H118.153846C74.830769 39.384615 39.384615 74.830769 39.384615 118.153846v787.692308c0 43.323077 35.446154 78.769231 78.769231 78.769231h265.846154c15.753846 0 29.538462-13.784615 29.538462-29.538462zM976.738462 531.692308c11.815385-11.815385 11.815385-29.538462 0-41.353846L710.892308 224.492308c-11.815385-11.815385-29.538462-11.815385-41.353846 0l-41.353847 41.353846c-11.815385 11.815385-11.815385 29.538462 0 41.353846l110.276923 110.276923c11.815385 11.815385 3.938462 33.476923-13.784615 33.476923H305.230769c-15.753846 0-29.538462 11.815385-29.538461 27.569231v59.076923c0 15.753846 13.784615 31.507692 29.538461 31.507692h417.476923c17.723077 0 25.6 21.661538 13.784616 33.476923l-110.276923 110.276923c-11.815385 11.815385-11.815385 29.538462 0 41.353847l41.353846 41.353846c11.815385 11.815385 29.538462 11.815385 41.353846 0L976.738462 531.692308z" p-id="14822" fill="#b2bac2"></path></svg>