<?xml version="1.0" standalone="no"?><!DOCTYPE svg PUBLIC "-//W3C//DTD SVG 1.1//EN" "http://www.w3.org/Graphics/SVG/1.1/DTD/svg11.dtd"><svg t="1574835519222" class="icon" viewBox="0 0 1024 1024" version="1.1" xmlns="http://www.w3.org/2000/svg" p-id="3127" width="18" height="18" xmlns:xlink="http://www.w3.org/1999/xlink"><defs><style type="text/css"></style></defs><path d="M648.452 644.995c-12.057-6.029-19.505-18.087-19.505-33.103V596.76c0-10.521 4.49-21.043 13.476-28.612 66.077-51.19 107.925-138.556 107.925-237.983C750.348 173.399 643.842 46.9 511.92 46.9S273.61 174.937 273.61 331.583c0 98.009 41.964 183.838 104.85 235.148 9.103 6.03 13.596 16.552 13.596 28.61v19.508c0 13.595-7.567 27.19-19.506 33.22C230.11 718.886 47.124 821.268 47.124 899.768v76.611h929.477v-76.611c0-78.5-184.407-182.537-328.15-254.772z" fill="#B2BAC2" p-id="3128"></path></svg>