<?xml version="1.0" standalone="no"?><!DOCTYPE svg PUBLIC "-//W3C//DTD SVG 1.1//EN" "http://www.w3.org/Graphics/SVG/1.1/DTD/svg11.dtd"><svg t="1572851201445" class="icon" viewBox="0 0 1024 1024" version="1.1" xmlns="http://www.w3.org/2000/svg" p-id="15670" xmlns:xlink="http://www.w3.org/1999/xlink" width="18" height="18"><defs><style type="text/css"></style></defs><path d="M831.455729 535.909549c0-72.758094 59.086723-97.104595 61.536518-98.079806l16.946974-6.558369L776.87667 207.93275l-13.566994 9.600659c-0.203638 0.145309-21.317515 14.497179-50.916647 14.497179-17.567098 0-34.83232-5.02955-51.241035-14.948457-23.158443-13.999852-39.780005-33.521464-49.246611-58.023508-7.227612-18.700921-7.609305-33.509185-7.609305-33.583886l0-15.349593L415.46334 110.125143l-12.681834 0.01842-2.394537 12.450567c-0.1361 0.709151-14.149255 71.293743-57.511855 100.419084-9.896394 6.647397-21.659299 10.017144-34.96228 10.017144-32.378431 0-63.102177-19.501146-63.382563-19.681248l-13.018501-8.441253L100.640118 411.56659l-10.211573 15.97381 17.754363 6.598278c2.442632 0.938372 59.84704 23.831778 61.422931 98.42773 1.551332 73.467245-47.698349 94.830809-50.602492 96.023984l-17.828041 6.568602L224.097918 823.222207l10.966773-3.317559c0.264013-0.078795 26.670429-7.952112 58.334593-7.952112 24.712845 0 45.1452 4.737908 60.965513 14.080693 44.438095 26.245757 45.270043 70.270437 45.270043 72.03871l0 15.349593 205.971072 0 2.387373-12.4608c0.11461-0.594541 11.94096-59.802014 57.879222-83.743286 13.58746-7.080256 28.730345-10.671037 45.0091-10.671037 27.438932 0 48.852638 10.269901 49.019437 10.350742l11.918447 5.904477 130.783649-190.081173-19.543102-6.363941C882.545314 626.188692 831.455729 608.709599 831.455729 535.909549zM506.318604 628.428709c-64.97585 0-117.649514-52.673663-117.649514-117.649514s52.673663-117.649514 117.649514-117.649514 117.649514 52.673663 117.649514 117.649514S571.294454 628.428709 506.318604 628.428709z" p-id="15671" fill="#b2bac2"></path></svg>